#!OML:ASF F:\VICON\USERDATA\INSTALL\rory3\rory3.ASF
:FULLY-SPECIFIED
:DEGREES
604
root 1.10586 15.2269 -5.81229 -2.6458 -5.53274 2.06105
lowerback -2.03257 10.0205 10.2697
upperback -3.68543 13.3476 -6.12917
thorax 1.01643 6.6529 -11.3796
lowerneck 1.0722 -6.09305 -12.3966
upperneck 48.9785 -2.57486 -8.9102
head 19.1042 -4.22181 -2.51897
rclavicle -7.77248e-014 -7.95139e-015
rhumerus 61.3598 -0.17991 -73.7152
rradius 139.332
rwrist -60.649
rhand -1.55356 -39.4825
rfingers 7.12502
rthumb 24.1015 -67.9887
lclavicle -7.77248e-014 -7.95139e-015
lhumerus -43.6681 -24.2248 85.0782
lradius 34.8136
lwrist 20.0389
lhand -15.3575 -25.84
lfingers 7.12502
lthumb 10.8199 3.86134
rfemur -24.5277 -31.1317 24.2568
rtibia 70.5562
rfoot -49.6944 -35.7404
rtoes 11.4294
lfemur -37.0999 -18.2991 -0.00284698
ltibia 18.1343
lfoot 12.791 -4.84786
ltoes -17.2074
605
root 1.10758 15.2271 -5.81116 -2.60547 -5.47521 2.19878
lowerback -2.07184 10.0214 10.1235
upperback -3.7202 13.3465 -6.17463
thorax 0.980458 6.64987 -11.3468
lowerneck 1.15456 -6.1004 -12.3712
upperneck 48.9448 -2.57719 -8.97779
head 19.0567 -4.22381 -2.54907
rclavicle -9.89948e-014 -1.59028e-015
rhumerus 61.5319 -0.178308 -73.6464
rradius 139.207
rwrist -60.6878
rhand -1.54913 -39.5557
rfingers 7.12502
rthumb 24.1058 -68.0614
lclavicle -9.89948e-014 -1.59028e-015
lhumerus -43.7622 -23.9671 85.0248
lradius 34.6966
lwrist 19.9227
lhand -14.9764 -25.9035
lfingers 7.12502
lthumb 11.1875 3.77822
rfemur -24.6311 -31.1399 24.1419
rtibia 70.5838
rfoot -49.5096 -36.0628
rtoes 11.2178
lfemur -37.164 -18.4002 -0.103486
ltibia 18.0786
lfoot 12.8611 -4.70632
ltoes -16.952
606
root 1.10983 15.2242 -5.81412 -2.53668 -5.38981 2.33582
lowerback -2.03685 9.95098 9.98279
upperback -3.74488 13.2552 -6.1736
thorax 0.879882 6.59709 -11.2945
lowerneck 0.966397 -6.07939 -12.4701
upperneck 48.9057 -2.44638 -9.09827
head 19.0909 -4.20266 -2.58031
rclavicle -2.16675e-014 5.08889e-014
rhumerus 61.7673 -0.0314082 -73.5769
rradius 139.149
rwrist -60.7107
rhand -1.50387 -39.5598
rfingers 7.12502
rthumb 24.1492 -68.0597
lclavicle -2.16675e-014 5.08889e-014
lhumerus -43.8927 -23.6959 85.1145
lradius 34.5547
lwrist 20.0478
lhand -14.8727 -25.9112
lfingers 7.12502
lthumb 11.2875 3.76512
rfemur -24.811 -31.1453 24.0691
rtibia 70.635
rfoot -49.447 -36.274
rtoes 10.9901
lfemur -37.2758 -18.3968 -0.245021
ltibia 18.0051
lfoot 12.9603 -4.73163
ltoes -16.8869
607
root 1.1106 15.2218 -5.81587 -2.56779 -5.30704 2.29185
lowerback -1.73882 9.93777 10.0563
upperback -3.86908 13.2651 -6.18211
thorax 0.603345 6.57966 -11.4147
lowerneck 0.904385 -6.10145 -12.4095
upperneck 48.9511 -2.40783 -9.23738
head 19.1358 -4.1933 -2.6625
rclavicle 1.82882e-014 -2.54444e-014
rhumerus 61.7189 -0.0483083 -73.4976
rradius 139.234
rwrist -60.6793
rhand -1.33185 -39.1279
rfingers 7.12502
rthumb 24.3141 -67.6058
lclavicle 1.82882e-014 -2.54444e-014
lhumerus -44.256 -23.7851 85.2943
lradius 34.6392
lwrist 20.2382
lhand -15.0986 -25.1017
lfingers 7.12502
lthumb 11.0697 4.58637
rfemur -24.7568 -31.0835 24.1113
rtibia 70.6628
rfoot -50.0593 -35.6404
rtoes 11.6001
lfemur -37.2189 -18.3053 -0.278054
ltibia 17.8701
lfoot 13.1479 -4.81505
ltoes -16.4476
